HIERARCHY
ROOT Hips
{
	OFFSET 0.000000 100.481300 0.000000
	CHANNELS 6 Xposition Yposition Zposition Xrotation Yrotation Zrotation 
	JOINT Spine
	{
		OFFSET -0.279200 12.230698 -2.892100
		CHANNELS 3 Xrotation Yrotation Zrotation
		JOINT Spine1
		{
			OFFSET -0.232667 10.192268 -1.242267
			CHANNELS 3 Xrotation Yrotation Zrotation
			JOINT Spine1_split
			{
				OFFSET -0.232667 10.192268 -1.242267
				CHANNELS 3 Xrotation Yrotation Zrotation
				JOINT Spine2
				{
					OFFSET -0.232667 10.192268 -1.242267
					CHANNELS 3 Xrotation Yrotation Zrotation
					JOINT Neck
					{
						OFFSET -0.418800 17.814194 8.416900
						CHANNELS 3 Xrotation Yrotation Zrotation
						JOINT Head
						{
							OFFSET 0.000000 7.031097 3.806800
							CHANNELS 3 Xrotation Yrotation Zrotation
							JOINT HeadTop_End
							{
								OFFSET 0.000000 24.646606 12.978600
								CHANNELS 3 Xrotation Yrotation Zrotation
								End Site
								{
									OFFSET 0.000000 0.000000 0.000000
								}
							}
						}
					}
					JOINT LeftShoulder
					{
						OFFSET 8.476499 7.247704 -3.868750
						CHANNELS 3 Xrotation Yrotation Zrotation
						JOINT LeftShoulder_split
						{
							OFFSET 8.476499 7.247704 -3.868750
							CHANNELS 3 Xrotation Yrotation Zrotation
							JOINT LeftArm
							{
								OFFSET 9.308998 -2.777710 0.208600
								CHANNELS 3 Xrotation Yrotation Zrotation
								JOINT LeftForeArm
								{
									OFFSET 29.972298 0.000000 0.000000
									CHANNELS 3 Xrotation Yrotation Zrotation
									JOINT LeftHand
									{
										OFFSET 26.026505 0.000000 0.000000
										CHANNELS 3 Xrotation Yrotation Zrotation
										JOINT LeftHandThumb1
										{
											OFFSET 12.240501 -7.147949 9.207150
											CHANNELS 3 Xrotation Yrotation Zrotation
											JOINT LeftHandThumb2
											{
												OFFSET 4.138618 -2.389435 2.389433
												CHANNELS 3 Xrotation Yrotation Zrotation
												JOINT LeftHandThumb3
												{
													OFFSET 2.726913 -1.574387 1.574386
													CHANNELS 3 Xrotation Yrotation Zrotation
													JOINT LeftHandThumb4
													{
														OFFSET 3.941010 -2.275345 2.275342
														CHANNELS 3 Xrotation Yrotation Zrotation
														End Site
														{
															OFFSET 0.000000 0.000000 0.000000
														}
													}
												}
											}
										}
										JOINT LeftHandIndex1
										{
											OFFSET 24.424698 -1.985611 5.953459
											CHANNELS 3 Xrotation Yrotation Zrotation
											JOINT LeftHandIndex2
											{
												OFFSET 6.426697 0.000000 0.000000
												CHANNELS 3 Xrotation Yrotation Zrotation
												JOINT LeftHandIndex3
												{
													OFFSET 5.337898 0.000000 0.000000
													CHANNELS 3 Xrotation Yrotation Zrotation
													JOINT LeftHandIndex4
													{
														OFFSET 4.409401 0.000000 0.000000
														CHANNELS 3 Xrotation Yrotation Zrotation
														End Site
														{
															OFFSET 0.000000 0.000000 0.000000
														}
													}
												}
											}
										}
										JOINT LeftHandMiddle1
										{
											OFFSET 23.810104 0.000000 0.000000
											CHANNELS 3 Xrotation Yrotation Zrotation
											JOINT LeftHandMiddle2
											{
												OFFSET 7.176498 0.000000 0.000000
												CHANNELS 3 Xrotation Yrotation Zrotation
												JOINT LeftHandMiddle3
												{
													OFFSET 6.774902 0.000000 0.000000
													CHANNELS 3 Xrotation Yrotation Zrotation
													JOINT LeftHandMiddle4
													{
														OFFSET 5.403328 0.000000 0.000000
														CHANNELS 3 Xrotation Yrotation Zrotation
														End Site
														{
															OFFSET 0.000000 0.000000 0.000000
														}
													}
												}
											}
										}
										JOINT LeftHandRing1
										{
											OFFSET 22.908401 -0.839279 -6.020567
											CHANNELS 3 Xrotation Yrotation Zrotation
											JOINT LeftHandRing2
											{
												OFFSET 6.337502 0.000000 0.000000
												CHANNELS 3 Xrotation Yrotation Zrotation
												JOINT LeftHandRing3
												{
													OFFSET 5.779297 0.000000 0.000000
													CHANNELS 3 Xrotation Yrotation Zrotation
													JOINT LeftHandRing4
													{
														OFFSET 4.965698 0.000000 0.000000
														CHANNELS 3 Xrotation Yrotation Zrotation
														End Site
														{
															OFFSET 0.000000 0.000000 0.000000
														}
													}
												}
											}
										}
										JOINT LeftHandPinky1
										{
											OFFSET 20.037003 -1.530319 -10.950146
											CHANNELS 3 Xrotation Yrotation Zrotation
											JOINT LeftHandPinky2
											{
												OFFSET 5.254700 0.000000 0.000000
												CHANNELS 3 Xrotation Yrotation Zrotation
												JOINT LeftHandPinky3
												{
													OFFSET 4.810204 0.000000 0.000000
													CHANNELS 3 Xrotation Yrotation Zrotation
													JOINT LeftHandPinky4
													{
														OFFSET 3.647202 0.000000 0.000000
														CHANNELS 3 Xrotation Yrotation Zrotation
														End Site
														{
															OFFSET 0.000000 0.000000 0.000000
														}
													}
												}
											}
										}
									}
								}
							}
						}
					}
					JOINT RightShoulder
					{
						OFFSET -7.570500 7.247704 -3.868750
						CHANNELS 3 Xrotation Yrotation Zrotation
						JOINT RightShoulder_split
						{
							OFFSET -7.570500 7.247704 -3.868750
							CHANNELS 3 Xrotation Yrotation Zrotation
							JOINT RightArm
							{
								OFFSET -9.308998 -2.777710 0.208500
								CHANNELS 3 Xrotation Yrotation Zrotation
								JOINT RightForeArm
								{
									OFFSET -29.972300 0.000000 0.000000
									CHANNELS 3 Xrotation Yrotation Zrotation
									JOINT RightHand
									{
										OFFSET -26.026505 0.000000 0.000000
										CHANNELS 3 Xrotation Yrotation Zrotation
										JOINT RightHandThumb1
										{
											OFFSET -12.240601 -7.148026 9.207092
											CHANNELS 3 Xrotation Yrotation Zrotation
											JOINT RightHandThumb2
											{
												OFFSET -4.138618 -2.389435 2.389433
												CHANNELS 3 Xrotation Yrotation Zrotation
												JOINT RightHandThumb3
												{
													OFFSET -2.726974 -1.574417 1.574421
													CHANNELS 3 Xrotation Yrotation Zrotation
													JOINT RightHandThumb4
													{
														OFFSET -3.941010 -2.275345 2.275343
														CHANNELS 3 Xrotation Yrotation Zrotation
														End Site
														{
															OFFSET 0.000000 0.000000 0.000000
														}
													}
												}
											}
										}
										JOINT RightHandIndex1
										{
											OFFSET -24.424698 -1.985657 5.953444
											CHANNELS 3 Xrotation Yrotation Zrotation
											JOINT RightHandIndex2
											{
												OFFSET -6.426697 0.000000 0.000000
												CHANNELS 3 Xrotation Yrotation Zrotation
												JOINT RightHandIndex3
												{
													OFFSET -5.337898 0.000000 0.000000
													CHANNELS 3 Xrotation Yrotation Zrotation
													JOINT RightHandIndex4
													{
														OFFSET -4.409401 0.000000 0.000000
														CHANNELS 3 Xrotation Yrotation Zrotation
														End Site
														{
															OFFSET 0.000000 0.000000 0.000000
														}
													}
												}
											}
										}
										JOINT RightHandMiddle1
										{
											OFFSET -23.810097 0.000000 0.000000
											CHANNELS 3 Xrotation Yrotation Zrotation
											JOINT RightHandMiddle2
											{
												OFFSET -7.176498 0.000000 0.000000
												CHANNELS 3 Xrotation Yrotation Zrotation
												JOINT RightHandMiddle3
												{
													OFFSET -6.774902 0.000000 0.000000
													CHANNELS 3 Xrotation Yrotation Zrotation
													JOINT RightHandMiddle4
													{
														OFFSET -5.403328 0.000000 0.000000
														CHANNELS 3 Xrotation Yrotation Zrotation
														End Site
														{
															OFFSET 0.000000 0.000000 0.000000
														}
													}
												}
											}
										}
										JOINT RightHandRing1
										{
											OFFSET -22.908302 -0.839325 -6.020576
											CHANNELS 3 Xrotation Yrotation Zrotation
											JOINT RightHandRing2
											{
												OFFSET -6.337502 0.000000 0.000000
												CHANNELS 3 Xrotation Yrotation Zrotation
												JOINT RightHandRing3
												{
													OFFSET -5.779297 0.000000 0.000000
													CHANNELS 3 Xrotation Yrotation Zrotation
													JOINT RightHandRing4
													{
														OFFSET -4.965698 0.000000 0.000000
														CHANNELS 3 Xrotation Yrotation Zrotation
														End Site
														{
															OFFSET 0.000000 0.000000 0.000000
														}
													}
												}
											}
										}
										JOINT RightHandPinky1
										{
											OFFSET -20.037003 -1.530334 -10.950259
											CHANNELS 3 Xrotation Yrotation Zrotation
											JOINT RightHandPinky2
											{
												OFFSET -5.254700 0.000000 0.000000
												CHANNELS 3 Xrotation Yrotation Zrotation
												JOINT RightHandPinky3
												{
													OFFSET -4.810204 0.000000 0.000000
													CHANNELS 3 Xrotation Yrotation Zrotation
													JOINT RightHandPinky4
													{
														OFFSET -3.647202 0.000000 0.000000
														CHANNELS 3 Xrotation Yrotation Zrotation
														End Site
														{
															OFFSET 0.000000 0.000000 0.000000
														}
													}
												}
											}
										}
									}
								}
							}
						}
					}
				}
			}
		}
	}
	JOINT LeftUpLeg
	{
		OFFSET 15.427100 -6.655098 0.678600
		CHANNELS 3 Xrotation Yrotation Zrotation
		JOINT LeftLeg
		{
			OFFSET 4.081073 -39.591068 13.024000
			CHANNELS 3 Xrotation Yrotation Zrotation
			JOINT LeftFoot
			{
				OFFSET -4.081074 -37.707932 -15.979700
				CHANNELS 3 Xrotation Yrotation Zrotation
				JOINT LeftToeBase
				{
					OFFSET 5.346399 -15.068900 20.645000
					CHANNELS 3 Xrotation Yrotation Zrotation
					JOINT LeftToe_End
					{
						OFFSET 2.754700 0.931300 11.300900
						CHANNELS 3 Xrotation Yrotation Zrotation
						End Site
						{
							OFFSET 0.000000 0.000000 0.000000
						}
					}
				}
			}
		}
	}
	JOINT RightUpLeg
	{
		OFFSET -15.569500 -6.655098 0.678600
		CHANNELS 3 Xrotation Yrotation Zrotation
		JOINT RightLeg
		{
			OFFSET -4.081825 -39.591045 13.023800
			CHANNELS 3 Xrotation Yrotation Zrotation
			JOINT RightFoot
			{
				OFFSET 4.081824 -37.707954 -15.979600
				CHANNELS 3 Xrotation Yrotation Zrotation
				JOINT RightToeBase
				{
					OFFSET -5.346400 -15.068900 20.645000
					CHANNELS 3 Xrotation Yrotation Zrotation
					JOINT RightToe_End
					{
						OFFSET -2.754700 0.931300 11.300900
						CHANNELS 3 Xrotation Yrotation Zrotation
						End Site
						{
							OFFSET 0.000000 0.000000 0.000000
						}
					}
				}
			}
		}
	}
}
MOTION
Frames: 4
Frame Time: 0.016667
1.071550 97.620277 -0.670690 -3.751392 -5.192696 -3.902675 3.292087 1.532467 2.880676 1.151564 0.341255 1.563088 0.000000 0.000000 0.000000 1.124399 0.369602 1.558065 5.626312 -0.076130 0.454684 -7.563350 1.377077 -0.080249 -0.000000 -0.000000 0.000000 1.046817 -17.441250 -12.316047 0.000000 0.000000 0.000000 3.916272 -19.989256 -69.765219 -0.000011 -1.459369 -0.000004 -33.230417 -1.364819 -6.186631 -0.663002 2.160318 4.832511 11.845362 25.425970 17.060318 -13.814329 3.531935 9.046574 -0.000000 -0.000000 0.000002 0.019863 -0.969578 -7.593518 0.267777 1.752584 -17.372567 0.057677 0.820916 -8.037615 0.000001 -0.000001 -0.000004 -0.076312 2.665783 -15.696828 0.268784 1.755799 -17.405532 0.300525 1.853980 -18.413345 0.000000 -0.000000 0.000001 0.136905 3.641776 -21.133514 0.386301 2.093949 -20.903109 0.282654 1.799432 -17.852711 -0.000000 0.000001 -0.000000 0.917888 5.560948 -27.127206 0.268796 1.755851 -17.405965 0.241812 1.667379 -16.502625 -0.000001 0.000000 -0.000001 1.209146 15.345166 14.705935 0.000000 0.000000 0.000000 13.158863 27.555133 58.785171 -0.000002 6.693727 -0.000003 -20.179106 -0.514107 6.782806 -1.665246 -0.174473 -4.219030 12.710970 -29.825329 -16.130933 -15.549426 -3.559409 -12.707141 0.000000 -0.000001 -0.000004 0.037233 1.273355 6.824655 0.213723 -1.396027 17.407033 0.046030 -0.653845 8.053222 0.000002 -0.000001 -0.000004 -0.136225 -2.205103 14.998896 0.214450 -1.398352 17.436872 0.239771 -1.476531 18.446266 0.000003 0.000001 -0.000000 0.030607 -3.075764 20.451036 0.308451 -1.668285 20.948528 0.225823 -1.434043 17.897100 -0.000000 -0.000002 -0.000001 0.756731 -4.881341 26.474344 0.214461 -1.398391 17.437213 0.193009 -1.328173 16.535835 0.000001 -0.000002 0.000001 -10.206496 14.659915 11.519098 12.134114 1.647992 4.070526 0.796284 0.795108 -8.235405 -4.940033 0.000000 0.000003 0.000000 -0.000000 0.000000 3.685595 -10.084189 1.720621 6.593196 -8.483806 -2.382542 -5.337980 -3.058912 4.999667 -7.282874 -0.000000 0.000002 -0.000000 -0.000002 0.000000 
1.084788 97.606544 -0.679313 -3.772820 -5.337583 -3.949300 3.291748 1.532004 2.893417 1.151564 0.341255 1.563088 0.000000 0.000000 0.000000 1.124400 0.369602 1.558066 5.641320 -0.076129 0.444040 -7.562832 1.382774 -0.108852 0.000000 -0.000000 0.000000 1.048151 -17.435434 -12.315652 0.000000 0.000000 0.000000 3.889504 -20.129829 -69.771011 -0.000001 -1.500345 -0.000002 -33.176479 -1.403252 -6.179766 -0.731335 2.210473 4.906273 11.849524 25.426127 17.046989 -13.814334 3.531936 9.046598 0.000001 0.000002 0.000001 0.037643 -0.954842 -7.569168 0.267774 1.752585 -17.372586 0.057676 0.820919 -8.037611 0.000000 -0.000000 0.000001 -0.085752 2.628824 -15.661567 0.268443 1.754725 -17.394431 0.300174 1.852925 -18.402516 -0.000000 0.000000 -0.000001 0.132377 3.630375 -21.141425 0.386300 2.093951 -20.903119 0.282655 1.799436 -17.852694 0.000000 -0.000001 -0.000000 0.910055 5.545732 -27.128202 0.268798 1.755853 -17.405986 0.241813 1.667376 -16.502633 0.000000 0.000001 -0.000000 1.208450 15.358338 14.695765 0.000000 0.000000 0.000000 13.135320 27.547095 58.785123 0.000002 6.665734 0.000007 -20.179215 -0.509187 6.769475 -1.578887 0.146351 -3.612002 12.359153 -29.465935 -16.752492 -15.196331 -6.264799 -13.853276 -0.000003 -0.000001 0.000000 0.071396 1.294371 6.594611 0.207551 -1.376194 17.151843 0.044780 -0.644975 7.943258 -0.000002 -0.000001 0.000001 -0.135836 -2.183625 14.745361 0.208853 -1.380426 17.206138 0.238468 -1.472624 18.395740 0.000000 -0.000000 -0.000001 0.029729 -3.067578 20.320429 0.308034 -1.667204 20.934491 0.225502 -1.433047 17.884102 -0.000001 0.000000 -0.000001 0.766589 -4.905941 26.265054 0.214458 -1.398371 17.437253 0.193009 -1.328190 16.535816 -0.000000 0.000001 0.000001 -10.192329 14.666189 11.608834 12.210343 1.767651 4.039870 0.716484 0.804331 -8.244955 -4.940030 -0.000001 -0.000000 0.000000 0.000001 0.000000 3.631860 -10.093705 1.826938 6.620881 -8.150098 -2.441366 -5.301178 -3.240992 4.935076 -7.282874 0.000008 0.000001 0.000000 -0.000001 -0.000000 
1.095865 97.582611 -0.687503 -3.795888 -5.488224 -3.989223 3.291585 1.531659 2.899466 1.151564 0.341255 1.563088 0.000000 0.000000 0.000000 1.124400 0.369602 1.558065 5.658004 -0.073426 0.433888 -7.562017 1.396771 -0.134893 -0.000000 -0.000000 0.000000 1.049204 -17.430815 -12.315330 0.000000 0.000000 0.000000 3.861908 -20.202549 -69.781352 -0.000001 -1.523118 0.000005 -33.149558 -1.438195 -6.183273 -0.802500 2.237497 4.968527 11.855489 25.426376 17.027928 -13.814338 3.531932 9.046620 -0.000002 0.000002 -0.000004 0.044155 -0.951276 -7.556544 0.267772 1.752585 -17.372562 0.057677 0.820913 -8.037632 -0.000001 -0.000000 -0.000001 -0.094899 2.594727 -15.647830 0.268340 1.754387 -17.391014 0.300071 1.852615 -18.399283 -0.000000 0.000001 0.000005 0.130829 3.627160 -21.159284 0.386303 2.093949 -20.903114 0.282656 1.799438 -17.852711 0.000001 -0.000000 -0.000000 0.906106 5.538015 -27.131004 0.268796 1.755854 -17.405974 0.241812 1.667377 -16.502633 -0.000000 0.000000 -0.000000 1.206564 15.367490 14.694090 0.000000 0.000000 0.000000 13.125067 27.554849 58.770738 -0.000010 6.622057 0.000018 -20.182830 -0.523832 6.785132 -1.412999 0.635814 -2.930317 11.971258 -29.040182 -17.421504 -14.788307 -9.187068 -14.782847 -0.000002 0.000001 0.000002 0.104997 1.310483 6.427151 0.200379 -1.352753 16.850806 0.043788 -0.637811 7.854458 -0.000000 -0.000000 -0.000001 -0.135433 -2.165788 14.534656 0.201553 -1.356606 16.900287 0.236566 -1.466901 18.321684 -0.000001 0.000001 0.000000 0.033631 -3.072509 20.193214 0.307456 -1.665702 20.914598 0.225018 -1.431563 17.865045 -0.000000 0.000002 -0.000001 0.776733 -4.930051 26.118695 0.214824 -1.399551 17.452344 0.193357 -1.329358 16.550875 0.000000 -0.000000 0.000004 -10.184898 14.672016 11.697546 12.311094 1.890911 4.007646 0.620788 0.815987 -8.257906 -4.940029 -0.000007 -0.000000 0.000001 0.000000 0.000000 3.557682 -10.095714 1.924295 6.692134 -7.835424 -2.507668 -5.286911 -3.412377 4.881250 -7.282878 0.000014 0.000002 -0.000000 0.000000 -0.000000 
1.106659 97.556870 -0.693807 -3.820303 -5.643971 -4.030155 3.291413 1.531261 2.906031 1.151564 0.341256 1.563088 0.000000 0.000000 0.000000 1.124400 0.369600 1.558065 5.675497 -0.070796 0.424322 -7.560892 1.416645 -0.159047 -0.000000 0.000000 -0.000000 1.050082 -17.426978 -12.315071 0.000000 0.000000 0.000000 3.834574 -20.228949 -69.793906 -0.000001 -1.533936 -0.000018 -33.143288 -1.469023 -6.193443 -0.859822 2.255366 5.016254 11.860731 25.426593 17.011051 -13.814319 3.531928 9.046568 -0.000001 -0.000000 0.000000 0.045882 -0.951699 -7.554062 0.267775 1.752585 -17.372559 0.057678 0.820918 -8.037614 -0.000001 0.000000 0.000001 -0.102330 2.568134 -15.649398 0.268287 1.754226 -17.389404 0.300022 1.852470 -18.397750 -0.000000 -0.000000 -0.000001 0.131291 3.629443 -21.184108 0.386303 2.093952 -20.903109 0.282658 1.799435 -17.852713 -0.000001 0.000000 -0.000001 0.904502 5.534711 -27.140458 0.268793 1.755852 -17.405970 0.241815 1.667381 -16.502635 0.000000 0.000001 0.000003 1.203737 15.373911 14.698709 0.000000 0.000000 0.000000 13.129137 27.577807 58.738083 0.000001 6.568093 -0.000005 -20.190167 -0.555378 6.822982 -1.186853 1.249702 -2.178566 11.554289 -28.561290 -18.150369 -14.356790 -12.250589 -15.529922 0.000000 0.000002 0.000004 0.135000 1.320355 6.337461 0.192950 -1.327971 16.533024 0.043088 -0.632739 7.791514 0.000000 0.000001 -0.000001 -0.135121 -2.153225 14.386342 0.193473 -1.329764 16.555960 0.234535 -1.460749 18.242038 -0.000003 0.000001 0.000001 0.040896 -3.088793 20.111057 0.307197 -1.665013 20.905587 0.224816 -1.430916 17.856734 0.000000 -0.000001 0.000002 0.784871 -4.944856 26.073438 0.215510 -1.401714 17.480076 0.194003 -1.331526 16.578565 0.000000 -0.000002 -0.000002 -10.175664 14.679209 11.789438 12.416766 2.017363 3.974411 0.518968 0.827933 -8.273734 -4.940031 -0.000001 -0.000001 -0.000000 0.000000 -0.000000 3.482560 -10.097874 2.022064 6.769241 -7.513203 -2.571620 -5.275835 -3.584290 4.824550 -7.282875 -0.000000 -0.000000 0.000001 -0.000000 -0.000000 
